<svg id="Layer" enable-background="new 0 0 64 64" height="512" viewBox="0 0 64 64" width="512" xmlns="http://www.w3.org/2000/svg"><path d="m42 8h-20c-7.72 0-14 6.28-14 14v20c0 7.72 6.28 14 14 14h20c7.72 0 14-6.28 14-14v-20c0-7.72-6.28-14-14-14zm10 34c0 5.514-4.486 10-10 10h-20c-5.514 0-10-4.486-10-10v-20c0-5.514 4.486-10 10-10h20c5.514 0 10 4.486 10 10z"/><path d="m32 21c-6.065 0-11 4.935-11 11s4.935 11 11 11 11-4.935 11-11-4.935-11-11-11zm0 18c-3.86 0-7-3.14-7-7s3.14-7 7-7 7 3.14 7 7-3.14 7-7 7z"/><path d="m45 16c-1.654 0-3 1.346-3 3s1.346 3 3 3 3-1.346 3-3-1.346-3-3-3z"/></svg>