<?xml version="1.0" encoding="UTF-8"?>
<!-- Generator: Adobe Illustrator 24.0.2, SVG Export Plug-In . SVG Version: 6.00 Build 0)  -->
<svg xmlns="http://www.w3.org/2000/svg" xmlns:xlink="http://www.w3.org/1999/xlink" version="1.1" id="Ebene_11" x="0px" y="0px" viewBox="0 0 2000 2000" style="enable-background:new 0 0 2000 2000;" xml:space="preserve">
<style type="text/css">
	.st0{fill:#FFFFFF;}
	.st1{fill:#4EDABB;}
</style>
<g>
	<path d="M1875.46,198.77c-27.88-34.16-67.39-55.41-111.25-59.85c-43.86-4.45-86.83,8.46-120.99,36.33   c-34.15,27.88-55.41,67.39-59.85,111.25c-19.49,192.54-72.62,383.78-154.85,559.31c-1.14,1.53-2.11,3.23-2.86,5.08   c-1.02,2.51-2.05,4.98-3.08,7.45c-4.91,10.27-9.92,20.48-15.03,30.63c-4.07-19.91-9.19-40.94-16.42-62.76   c-40.47-122.2-138.39-203.55-249.48-207.25c-84.67-2.81-166.74,39.81-219.55,114.02c-33.24,46.75-48.17,94.25-60.61,138.91   c-28.83,103.46-53.39,209.34-73.27,315.68c-0.68,1.35-1.23,2.79-1.64,4.3l-37.66-69.83c-10.89-20.2-31.16-57.78-64.62-92.64   c-41.97-43.73-91.54-69.55-147.32-76.74c-29.06-3.74-58.19-2.06-86.57,4.99c-38.42,9.56-74.31,28.8-106.65,57.2   c-29.77,26.14-56.73,60.31-80.13,101.58c-97.62,172.16-158.37,367.91-175.66,566.09c-7.92,90.67,59.41,170.87,150.07,178.78   c4.9,0.43,9.79,0.64,14.64,0.64c38.71,0,75.83-13.46,105.84-38.65c33.76-28.35,54.47-68.15,58.3-112.07   c8.76-100.26,32.4-200.75,69.15-295.27c1.06-1.86,1.89-3.89,2.4-6.08c0.02-0.05,0.03-0.09,0.04-0.14   c5.64-14.24,11.57-28.34,17.8-42.28l60.41,112.01c11.77,21.83,33.69,62.47,69.62,99.75c45.07,46.77,98.1,73.73,157.61,80.13   c8.42,0.9,16.82,1.35,25.2,1.35c90.53,0,177.21-52.08,225.84-137.67c32.81-57.73,41.45-114.49,48.39-160.11l0.48-3.15   c11.03-72.29,24.56-144.98,40.37-216.96c23.77,47.86,59.02,90.1,101.2,120.83c48.07,35.02,103.31,53.25,158.27,53.25   c22.76-0.01,45.48-3.13,67.61-9.49c105.16-30.19,156.88-118.2,178.97-155.77c148.1-251.93,242.03-539.59,271.62-831.87   C1916.24,275.89,1903.33,232.92,1875.46,198.77z M328.85,1787.95c-24.33,20.42-55.15,30.14-86.79,27.38   c-59.11-5.16-104.44-52.95-108.31-110.39c0.59-1.42,1.05-2.91,1.36-4.47c4.62-23.46,24.23-36.62,39.87-43.54   c22.9-10.13,52.93-13.84,82.37-10.18c29.96,3.72,56.55,14.56,74.88,30.51c19.63,17.08,28.88,39.12,27.48,65.49   c-0.08,1.67,0.01,3.31,0.27,4.9C352.75,1762.99,342.22,1776.72,328.85,1787.95z M1600.4,1128.23   c-19.29,32.83-64.48,109.7-151.93,134.81c-61.8,17.75-129.59,4.37-185.97-36.7c-42.63-31.06-77.05-75.9-96.93-126.27   c-4.89-12.39-9.16-25.17-13.01-38.93c14.76-55.19,40.22-123.94,54.34-145.3c7.02-10.63,4.1-24.95-6.53-31.97   c-10.63-7.03-24.94-4.11-31.97,6.52c-22.9,34.65-59.75,142.33-70.33,202.59c-19.94,85.93-36.7,173.16-49.93,259.84l-0.48,3.15   c-6.37,41.86-14.3,93.94-42.88,144.25c-44.06,77.52-124.91,121.97-205.99,113.24c-48.46-5.21-91.97-27.51-129.33-66.28   c-31.54-32.72-51.5-69.74-62.23-89.63l-78.29-145.17c17.33-33.01,37.33-65.05,54.75-84.68c8.46-9.53,7.59-24.11-1.94-32.57   c-9.53-8.46-24.11-7.59-32.57,1.94c-18.94,21.34-42.04,57.21-63.38,98.42c-19.88,38.4-34.85,74.64-41.46,100.25   c-32.86,83.69-55.86,171.93-67.84,260.77c-4.23-4.93-8.88-9.62-13.98-14.06c-25.18-21.91-60.5-36.65-99.47-41.49   c-38.06-4.73-75.96,0.16-106.74,13.77c-5.36,2.37-10.43,4.99-15.22,7.83c23.11-169.57,78.82-335.48,162.68-483.37   c20.85-36.77,44.55-66.94,70.43-89.66c47.42-41.64,95.21-52.67,132.52-52.67c8.74,0,16.91,0.61,24.37,1.57   c45.07,5.81,85.42,26.98,119.92,62.92c29.11,30.33,47.44,64.33,57.29,82.59l66.12,122.6c-7.06,35.45-18.02,75.11-34.63,93.82   c-8.46,9.53-7.59,24.11,1.94,32.57c4.39,3.9,9.86,5.82,15.31,5.82c6.36,0,12.7-2.62,17.26-7.76   c29.95-33.74,43.89-98.82,53.08-160.83c20.64-116.48,47.01-232.66,78.56-345.89c11.34-40.71,24.84-83.87,53.76-124.54   c43.81-61.57,111.25-96.95,180.42-94.65c91.55,3.05,172.88,71.99,207.21,175.64c11.67,35.24,17.55,69.5,22.74,99.75   c1.04,6.02,2.1,12.2,3.18,18.22c-32.62,57.46-60.13,91.94-60.69,92.64c-8,9.91-6.46,24.43,3.45,32.44   c4.27,3.45,9.39,5.12,14.49,5.12c6.73,0,13.4-2.93,17.96-8.57c2.7-3.35,65.32-81.56,116.27-203.17   c76.37-159.91,129.1-332.86,154.92-508.41c4.63,5.04,9.67,9.77,15.12,14.16c24.79,19.98,57.56,32.23,92.28,34.48   c4.01,0.27,8.02,0.39,12.02,0.39c34.74,0,69.03-9.72,97.67-27.87c8.03-5.08,15.51-10.75,22.42-16.95   C1824.31,638.66,1735.38,898.63,1600.4,1128.23z M1812.05,350.92c-23.77,15.06-52.9,22.31-82.01,20.42   c-25.31-1.65-48.86-10.3-66.31-24.37c-18.88-15.21-30.17-35.75-33.54-61.03c-0.04-0.29-0.09-0.58-0.14-0.87   c4.45-29.16,19.33-55.28,42.35-74.07c24.6-20.08,55.56-29.38,87.16-26.18c31.6,3.2,60.07,18.52,80.15,43.12   c12.44,15.25,20.74,32.94,24.5,51.7C1855.79,309.99,1837.77,334.63,1812.05,350.92z"></path>
	<path class="st0" d="M359.98,1747.65c-7.23,15.34-17.76,29.07-31.13,40.3c-24.33,20.42-55.15,30.14-86.79,27.38   c-59.11-5.16-104.44-52.95-108.31-110.39c0.59-1.42,1.05-2.91,1.36-4.47c4.62-23.46,24.23-36.62,39.87-43.54   c22.9-10.13,52.93-13.84,82.37-10.18c29.96,3.72,56.55,14.56,74.88,30.51c19.63,17.08,28.88,39.12,27.48,65.49   C359.63,1744.42,359.72,1746.06,359.98,1747.65z"></path>
	<path class="st0" d="M1864.21,279.64c-8.42,30.35-26.44,54.99-52.16,71.28c-23.77,15.06-52.9,22.31-82.01,20.42   c-25.31-1.65-48.86-10.3-66.31-24.37c-18.88-15.21-30.17-35.75-33.54-61.03c-0.04-0.29-0.09-0.58-0.14-0.87   c4.45-29.16,19.33-55.28,42.35-74.07c24.6-20.08,55.56-29.38,87.16-26.18c31.6,3.2,60.07,18.52,80.15,43.12   C1852.15,243.19,1860.45,260.88,1864.21,279.64z"></path>
	<path class="st1" d="M1859.16,372.95c-34.85,265.71-123.78,525.68-258.76,755.28c-19.29,32.83-64.48,109.7-151.93,134.81   c-61.8,17.75-129.59,4.37-185.97-36.7c-42.63-31.06-77.05-75.9-96.93-126.27c-4.89-12.39-9.16-25.17-13.01-38.93   c14.76-55.19,40.22-123.94,54.34-145.3c7.02-10.63,4.1-24.95-6.53-31.97c-10.63-7.03-24.94-4.11-31.97,6.52   c-22.9,34.65-59.75,142.33-70.33,202.59c-19.94,85.93-36.7,173.16-49.93,259.84l-0.48,3.15c-6.37,41.86-14.3,93.94-42.88,144.25   c-44.06,77.52-124.91,121.97-205.99,113.24c-48.46-5.21-91.97-27.51-129.33-66.28c-31.54-32.72-51.5-69.74-62.23-89.63   l-78.29-145.17c17.33-33.01,37.33-65.05,54.75-84.68c8.46-9.53,7.59-24.11-1.94-32.57c-9.53-8.46-24.11-7.59-32.57,1.94   c-18.94,21.34-42.04,57.21-63.38,98.42c-19.88,38.4-34.85,74.64-41.46,100.25c-32.86,83.69-55.86,171.93-67.84,260.77   c-4.23-4.93-8.88-9.62-13.98-14.06c-25.18-21.91-60.5-36.65-99.47-41.49c-38.06-4.73-75.96,0.16-106.74,13.77   c-5.36,2.37-10.43,4.99-15.22,7.83c23.11-169.57,78.82-335.48,162.68-483.37c20.85-36.77,44.55-66.94,70.43-89.66   c47.42-41.64,95.21-52.67,132.52-52.67c8.74,0,16.91,0.61,24.37,1.57c45.07,5.81,85.42,26.98,119.92,62.92   c29.11,30.33,47.44,64.33,57.29,82.59l66.12,122.6c-7.06,35.45-18.02,75.11-34.63,93.82c-8.46,9.53-7.59,24.11,1.94,32.57   c4.39,3.9,9.86,5.82,15.31,5.82c6.36,0,12.7-2.62,17.26-7.76c29.95-33.74,43.89-98.82,53.08-160.83   c20.64-116.48,47.01-232.66,78.56-345.89c11.34-40.71,24.84-83.87,53.76-124.54c43.81-61.57,111.25-96.95,180.42-94.65   c91.55,3.05,172.88,71.99,207.21,175.64c11.67,35.24,17.55,69.5,22.74,99.75c1.04,6.02,2.1,12.2,3.18,18.22   c-32.62,57.46-60.13,91.94-60.69,92.64c-8,9.91-6.46,24.43,3.45,32.44c4.27,3.45,9.39,5.12,14.49,5.12c6.73,0,13.4-2.93,17.96-8.57   c2.7-3.35,65.32-81.56,116.27-203.17c76.37-159.91,129.1-332.86,154.92-508.41c4.63,5.04,9.67,9.77,15.12,14.16   c24.79,19.98,57.56,32.23,92.28,34.48c4.01,0.27,8.02,0.39,12.02,0.39c34.74,0,69.03-9.72,97.67-27.87   C1844.77,384.82,1852.25,379.15,1859.16,372.95z"></path>
</g>
</svg>
