<?xml version="1.0" standalone="no"?>
<!DOCTYPE svg PUBLIC "-//W3C//DTD SVG 20010904//EN"
 "http://www.w3.org/TR/2001/REC-SVG-20010904/DTD/svg10.dtd">
<svg version="1.0" xmlns="http://www.w3.org/2000/svg"
 width="1497.000000pt" height="380.000000pt" viewBox="0 0 1497.000000 380.000000"
 preserveAspectRatio="xMidYMid meet">

<g transform="translate(0.000000,380.000000) scale(0.100000,-0.100000)"
fill="#000000" stroke="none">
<path d="M10760 3544 c-177 -27 -317 -105 -406 -225 -20 -28 -61 -73 -90 -101
-115 -108 -176 -245 -195 -435 -7 -66 -9 -301 -6 -631 4 -482 6 -535 25 -618
11 -50 31 -113 45 -140 59 -116 189 -197 372 -230 126 -22 390 -25 485 -5 91
19 215 83 275 140 63 61 91 77 99 55 3 -9 6 -24 6 -34 0 -39 81 -179 128 -221
114 -100 301 -153 423 -119 20 6 54 24 74 40 21 17 41 30 45 30 4 0 5 -24 2
-54 -5 -62 -16 -54 128 -85 212 -44 343 -56 605 -54 138 0 270 5 295 10 l45 8
3 80 c2 44 8 82 14 86 6 4 40 10 75 14 56 6 65 10 74 32 5 14 9 224 9 492 0
398 2 470 15 481 8 6 19 9 25 5 7 -4 10 -192 10 -581 0 -319 4 -574 9 -574 13
0 396 87 476 108 l70 18 3 86 3 86 47 11 c26 7 64 16 85 22 l37 10 0 1069 c0
780 -3 1070 -11 1070 -6 0 -122 -27 -258 -60 -135 -33 -256 -62 -268 -65 -20
-5 -22 -12 -25 -88 l-3 -82 -82 -20 -83 -19 0 -154 c0 -147 -1 -155 -26 -198
-41 -70 -46 -66 -39 35 4 50 6 91 3 91 -2 0 -53 -7 -112 -15 -286 -40 -547
-39 -829 4 l-117 17 0 -83 c0 -62 -3 -83 -13 -83 -36 0 -133 23 -139 33 -4 7
-8 46 -8 89 l0 76 -117 27 c-65 15 -183 43 -262 64 l-145 37 -21 71 c-63 205
-232 368 -462 443 -67 22 -240 42 -293 34z m56 -185 c230 -41 412 -177 496
-368 l33 -76 3 -292 3 -293 -28 -1 -28 -1 28 -10 c26 -9 27 -12 27 -89 0 -57
-4 -79 -12 -79 -7 0 -69 11 -138 24 -69 14 -143 26 -165 28 l-40 3 -3 -83 -3
-83 -84 7 -85 7 -1 -159 c-1 -95 -4 -149 -9 -134 -4 14 -8 291 -8 615 0 325 4
579 8 565 4 -14 8 -143 9 -287 l1 -262 58 -6 c31 -3 110 -13 176 -21 65 -8
120 -13 123 -11 6 7 -105 25 -228 38 l-106 12 -6 261 c-6 265 -12 318 -44 342
-24 18 -103 18 -130 -1 -47 -33 -48 -48 -48 -740 0 -683 1 -700 45 -740 27
-25 94 -31 124 -11 38 24 46 71 53 305 l6 213 76 -6 c80 -7 278 -39 371 -59
l55 -13 0 -249 0 -250 -34 -63 c-52 -96 -130 -154 -271 -202 -54 -19 -94 -23
-235 -27 -223 -7 -353 14 -495 80 -66 31 -154 124 -178 189 -43 114 -47 189
-46 828 0 691 -1 682 87 822 55 87 111 144 191 192 141 85 294 114 452 85z
m3060 -2306 c-10 -11 -479 -123 -513 -123 -11 0 -13 112 -11 572 l3 572 38 9
37 9 0 315 c0 350 7 316 -60 297 -20 -5 -20 -2 -18 168 l3 173 230 52 c127 28
244 56 260 61 l30 8 3 -1054 c1 -581 0 -1057 -2 -1059z m-2234 1731 l237 -58
3 -711 c3 -657 4 -713 20 -738 20 -29 38 -41 81 -51 21 -5 33 -1 52 18 l25 25
0 706 c0 388 2 705 5 705 2 0 68 -11 147 -25 79 -14 190 -31 248 -38 l105 -13
3 -862 2 -862 -47 0 c-60 0 -295 33 -391 55 l-72 17 0 69 c0 38 -4 69 -8 69
-5 0 -21 -14 -38 -31 -88 -93 -223 -101 -392 -24 -101 47 -168 116 -212 220
-32 76 -34 86 -34 200 0 66 4 206 8 311 7 141 6 193 -3 198 -16 10 -16 332 0
342 9 5 10 68 5 238 -4 127 -9 248 -13 270 -5 34 -3 38 13 33 11 -3 126 -31
256 -63z m1776 -383 l2 -291 -25 -10 c-15 -6 -31 -10 -36 -10 -11 0 -12 569
-1 586 8 13 33 23 47 20 6 -2 11 -111 13 -295z m-88 -30 l0 -289 -51 -17 c-65
-22 -142 -94 -160 -150 -9 -29 -13 -177 -16 -532 l-5 -492 -36 -8 c-21 -4
-134 -7 -252 -7 l-215 -1 -3 861 -2 861 227 7 c126 3 239 7 253 9 28 2 28 4
15 -130 -9 -95 2 -108 35 -42 37 71 91 139 144 179 28 22 54 40 59 40 4 0 7
-130 7 -289z"/>
<path d="M11203 2343 c9 -2 23 -2 30 0 6 3 -1 5 -18 5 -16 0 -22 -2 -12 -5z"/>
<path d="M11258 2333 c6 -2 18 -2 25 0 6 3 1 5 -13 5 -14 0 -19 -2 -12 -5z"/>
<path d="M2050 3503 c-95 -5 -103 -9 -96 -45 3 -18 1 -37 -5 -44 -6 -8 -9 -27
-6 -43 7 -35 4 -37 -86 -46 -37 -4 -69 -10 -71 -14 -2 -3 -12 -79 -22 -169
-10 -89 -21 -154 -25 -145 -3 10 -14 117 -24 238 -10 121 -21 223 -25 228 -8
9 -180 -22 -383 -70 l-159 -37 7 -82 7 -81 -91 -23 -91 -22 0 -33 c0 -17 11
-115 24 -216 14 -101 32 -249 41 -329 8 -80 33 -289 55 -465 21 -176 58 -480
81 -675 23 -195 45 -359 49 -363 4 -4 53 4 110 18 113 29 329 66 486 85 l102
12 10 80 c5 43 12 81 14 84 2 2 36 7 74 11 l69 8 12 90 c7 50 18 128 24 174
13 96 22 91 38 -19 27 -186 64 -399 71 -410 4 -6 54 -16 111 -21 149 -14 357
-46 479 -73 74 -17 107 -21 112 -13 4 6 10 40 14 75 4 37 12 66 19 68 7 3 31
0 54 -6 l41 -11 0 -79 c0 -52 4 -81 12 -87 16 -9 195 -56 363 -94 72 -16 140
-31 153 -34 21 -5 22 -3 22 80 0 78 2 86 18 81 9 -3 35 -8 57 -11 79 -13 75
-8 75 -95 0 -47 4 -82 11 -86 20 -12 220 -33 382 -40 l157 -7 0 58 0 59 38
-36 c73 -71 209 -102 322 -73 107 27 186 85 252 184 l18 26 0 -61 c0 -33 2
-63 5 -66 6 -6 172 31 385 86 l135 34 3 86 c2 54 7 86 14 86 6 0 30 -18 53
-39 76 -70 126 -74 470 -30 l175 23 0 82 0 81 46 7 c26 3 64 6 85 6 l39 0 0
145 0 145 -62 0 c-35 0 -69 4 -77 9 -26 17 -30 100 -31 597 0 397 3 504 13
512 7 6 40 12 72 14 l60 3 3 58 3 57 104 0 c57 0 115 -4 129 -10 l26 -10 0
-850 c0 -485 4 -850 9 -850 55 0 468 -67 534 -86 15 -5 17 3 17 75 0 93 0 93
100 66 30 -8 58 -15 63 -15 4 0 7 345 7 766 l0 765 28 -3 27 -3 3 -855 2 -856
148 -37 c143 -36 374 -87 393 -87 5 0 9 37 9 81 l0 81 58 -6 c97 -12 92 -7 92
-100 l0 -83 38 -6 c87 -14 314 -28 407 -25 l100 3 3 83 c2 62 6 82 17 82 7 0
20 3 28 6 8 3 35 -13 63 -37 114 -99 276 -127 479 -83 211 45 367 146 478 309
22 33 68 89 101 126 73 77 129 170 158 259 17 54 22 97 26 246 l4 182 -63 -14
c-100 -21 -99 -21 -99 36 0 49 1 49 38 59 20 6 56 13 80 17 l42 7 0 202 c0
297 -29 420 -120 514 -47 48 -95 74 -177 95 -204 53 -566 -52 -737 -213 -21
-20 -59 -63 -83 -96 -24 -32 -53 -65 -62 -72 -17 -11 -20 -8 -31 33 -29 102
-156 194 -295 213 -117 17 -268 -11 -350 -65 l-25 -16 0 223 c0 123 -4 229 -8
234 -4 6 -63 21 -132 33 -69 12 -188 38 -265 57 -376 91 -610 146 -705 165
-147 29 -397 60 -485 60 l-75 0 0 -80 0 -80 -85 0 -84 0 -3 -132 -3 -133 -35
0 -35 0 -3 138 c-1 75 -6 137 -10 137 -53 0 -471 -66 -509 -81 -21 -8 -23 -15
-23 -88 l0 -80 -42 -11 c-24 -6 -62 -15 -85 -22 l-43 -11 0 -67 c0 -37 -3 -69
-6 -72 -3 -4 -22 0 -42 9 -58 24 -165 27 -287 8 -110 -17 -283 -69 -360 -107
-97 -49 -228 -162 -279 -240 -10 -16 -21 -28 -25 -28 -3 0 -15 21 -25 47 -80
194 -402 276 -615 158 -24 -14 -45 -25 -47 -25 -2 0 -5 104 -6 232 l-3 231
-182 38 c-100 21 -224 49 -275 63 -51 14 -187 47 -303 74 l-210 50 -12 -75
c-7 -42 -14 -77 -17 -80 -3 -3 -35 0 -72 6 -36 7 -68 11 -69 9 -2 -2 -13 -72
-24 -156 -11 -84 -25 -160 -29 -169 -5 -9 -14 62 -22 181 -7 108 -17 196 -22
196 -5 0 -7 23 -3 53 10 78 2 84 -135 96 -138 12 -285 18 -360 14z m306 -195
c3 -4 17 -141 30 -305 13 -164 30 -377 39 -473 8 -96 24 -301 36 -455 12 -154
23 -282 25 -284 13 -14 19 34 35 252 23 311 45 553 64 692 26 193 65 510 65
524 0 19 74 10 227 -28 65 -16 135 -33 156 -36 l37 -7 0 -477 c0 -268 -4 -502
-10 -536 -6 -33 -26 -199 -45 -370 -19 -170 -40 -341 -45 -380 -6 -38 -17
-125 -24 -193 -7 -67 -15 -125 -17 -127 -2 -2 -40 5 -83 15 -107 26 -314 58
-466 73 l-124 12 -17 75 c-10 42 -32 170 -49 285 -17 116 -39 266 -50 335 -11
69 -27 188 -35 265 -15 131 -28 178 -39 144 -2 -8 -19 -124 -36 -259 -17 -135
-39 -299 -49 -365 -10 -66 -28 -202 -41 -303 -21 -168 -25 -183 -44 -186 -12
-3 -93 -14 -181 -25 -88 -12 -229 -37 -314 -56 -84 -19 -157 -32 -162 -29 -5
3 -9 20 -9 37 0 18 -14 142 -30 277 -17 135 -48 399 -70 587 -22 188 -42 353
-45 365 -3 13 -19 147 -35 298 -30 273 -46 400 -56 452 -7 36 -5 37 281 102
201 46 231 51 236 37 3 -9 11 -97 18 -196 7 -99 17 -220 22 -270 11 -103 69
-854 69 -900 0 -30 15 -64 24 -55 2 3 9 84 16 180 12 178 27 341 55 575 8 72
22 202 30 290 18 185 46 428 51 434 15 17 543 26 560 9z m4327 -3 c75 -8 179
-22 230 -30 79 -14 409 -86 460 -101 15 -5 17 -23 17 -205 0 -231 15 -210
-132 -175 -54 13 -100 21 -103 18 -3 -3 -5 -388 -5 -855 l0 -849 -22 6 c-60
16 -255 50 -377 65 l-136 17 -3 857 -2 857 -93 2 c-50 2 -121 2 -157 1 -40 -1
-68 3 -72 10 -9 15 -11 381 -1 390 12 12 254 7 396 -8z m-3542 -137 l39 -11
-7 -56 c-3 -31 -23 -189 -43 -351 l-38 -295 -1 363 c-1 199 2 362 5 362 4 0
24 -5 45 -12z m4327 -18 c9 0 12 -48 12 -206 l0 -206 -32 6 c-18 3 -36 12 -40
19 -10 15 -11 381 -1 391 4 4 17 5 28 2 11 -3 26 -6 33 -6z m-4160 -24 c53
-13 141 -34 195 -46 l97 -22 0 -233 c0 -129 4 -236 9 -239 5 -3 40 9 77 27 66
31 74 32 189 31 100 0 130 -4 177 -23 128 -50 199 -120 228 -225 17 -59 17
-69 3 -113 -9 -30 -17 -108 -20 -205 l-6 -156 24 -4 c24 -3 24 -5 27 -132 2
-113 0 -137 -20 -195 -21 -61 -23 -82 -23 -281 1 -197 3 -220 23 -274 13 -34
22 -82 22 -113 l0 -53 -105 0 c-113 0 -395 26 -407 38 -4 4 -8 320 -10 702 -4
737 -4 745 -51 768 -44 21 -74 22 -97 4 -34 -27 -39 -144 -40 -825 0 -584 -1
-618 -17 -613 -10 3 -40 10 -68 16 -27 6 -135 31 -238 56 l-188 46 4 677 c3
447 8 693 15 726 9 37 82 648 82 680 0 9 19 6 118 -19z m2778 -251 l75 7 -3
-124 -3 -123 -70 -10 -70 -10 0 -562 c0 -649 -8 -598 98 -598 l62 0 3 -127 c3
-126 2 -128 -20 -132 -89 -16 -395 -51 -448 -50 -112 2 -179 50 -199 145 -7
32 -11 251 -11 619 0 312 -3 575 -6 584 -3 9 -14 16 -23 16 -12 0 -22 13 -30
40 -6 21 -23 52 -36 68 -19 22 -25 42 -25 75 0 49 0 48 68 62 48 10 55 31 47
159 -3 61 -2 116 2 123 10 14 187 55 373 87 l135 23 3 -140 3 -139 75 7z
m1649 210 l180 -41 5 -241 5 -241 63 30 c89 43 160 56 259 47 268 -26 409
-196 356 -430 -25 -110 -25 -848 0 -957 12 -52 17 -119 17 -229 l0 -156 -202
7 c-112 4 -225 10 -253 14 l-50 7 -6 695 c-4 382 -10 707 -14 722 -12 46 -47
70 -96 66 -77 -5 -74 31 -77 -755 -2 -381 -7 -693 -12 -693 -15 0 -394 87
-453 105 l-57 16 2 842 3 842 25 -3 c72 -9 65 -30 68 201 l2 207 28 -7 c15 -4
108 -25 207 -48z m1757 -360 c26 -4 78 -21 115 -40 154 -77 203 -217 203 -581
l0 -161 -182 -46 c-101 -26 -253 -63 -338 -83 -85 -19 -158 -38 -162 -40 -12
-8 -9 -463 3 -507 12 -44 48 -72 81 -62 46 14 87 55 99 98 7 25 11 107 10 202
0 88 2 165 7 171 6 9 448 124 476 124 5 0 6 -73 3 -167 -6 -199 -21 -257 -96
-378 -110 -178 -221 -257 -461 -331 -79 -24 -262 -28 -331 -8 -118 35 -194 96
-251 201 l-27 49 -2 566 -1 567 36 74 c50 104 124 175 256 244 109 57 246 97
383 111 72 8 89 8 179 -3z m-4262 -16 c25 -5 63 -22 85 -38 l40 -27 5 -89 c5
-89 5 -90 30 -86 56 8 55 9 61 -59 8 -77 15 -1327 8 -1334 -7 -7 -212 -60
-366 -95 l-123 -28 0 68 c0 37 -4 70 -9 73 -5 3 -20 -13 -34 -36 -40 -67 -109
-132 -173 -164 -53 -25 -70 -28 -159 -29 -120 0 -185 24 -240 88 l-35 41 0
313 c0 197 4 322 10 334 14 25 134 105 235 157 85 44 97 51 215 121 102 61
137 90 152 126 16 38 16 279 0 317 -14 34 -51 44 -101 29 -56 -16 -63 -40 -69
-237 l-4 -172 -127 -16 c-69 -8 -167 -18 -217 -22 l-92 -6 -4 194 c-6 233 -2
246 107 353 104 102 223 159 425 204 162 37 283 43 380 20z m190 -149 c25 -54
21 -69 -22 -70 -15 0 -18 10 -18 66 0 36 4 63 8 60 4 -2 19 -28 32 -56z
m-1110 -482 c0 -116 -2 -138 -15 -138 -12 0 -15 16 -15 83 0 115 11 221 21
205 5 -7 9 -75 9 -150z m620 67 c0 -19 -13 -32 -68 -65 -38 -22 -71 -40 -75
-40 -4 0 -7 22 -7 49 l0 49 73 15 c39 8 73 15 75 16 1 0 2 -10 2 -24z m3698
-470 c0 -247 -4 -411 -9 -385 -10 59 -9 873 1 840 4 -14 8 -218 8 -455z
m-4012 267 c-3 -4 -32 -30 -66 -56 l-61 -48 3 48 3 49 50 6 c28 3 56 7 63 7 7
1 11 -2 8 -6z m4862 -154 l-3 -51 -75 -18 c-41 -10 -79 -18 -83 -19 -4 0 -7
24 -5 52 l3 53 70 17 c101 24 96 25 93 -34z m-5169 -475 c0 -198 -3 -260 -11
-238 -20 58 -13 505 8 505 2 0 4 -120 3 -267z"/>
<path d="M9194 2417 c-56 -16 -69 -54 -72 -210 -2 -76 -2 -144 1 -151 5 -12
16 -12 74 0 117 25 106 6 101 168 -4 183 -23 217 -104 193z"/>
<path d="M4887 1726 c-78 -79 -104 -127 -118 -216 -14 -90 -7 -245 12 -285 20
-41 59 -51 106 -28 57 27 64 68 61 353 l-3 235 -58 -59z"/>
</g>
</svg>
